<?xml version="1.0" encoding="UTF-8"?>
<!-- Generated by Pixelmator Pro 4.2 -->
<svg width="1024" height="1024" viewBox="0 0 1024 1024" xmlns="http://www.w3.org/2000/svg">
    <path id="path1" fill="#000000" stroke="none" d="M 764.3125 517.5 C 722.83313 534.687622 689.776123 550.156189 665.140625 563.90625 C 640.505127 577.656311 621.312561 591.291626 607.5625 604.8125 C 594.041626 618.333374 580.406311 637.354065 566.65625 661.875 C 552.906189 686.395935 537.208435 719.968506 519.5625 762.59375 L 505.46875 762.59375 C 487.593658 719.968506 471.781311 686.395935 458.03125 661.875 C 444.281189 637.354065 430.760498 618.333374 417.46875 604.8125 C 403.718689 591.291626 384.526184 577.656311 359.890625 563.90625 C 335.255096 550.156189 302.083557 534.687622 260.375 517.5 L 260.375 503.40625 C 302.312714 486.218628 335.598846 470.750061 360.234375 457 C 384.869934 443.249939 403.947845 429.614624 417.46875 416.09375 C 430.760498 402.572876 444.281189 383.552246 458.03125 359.03125 C 471.781311 334.510315 487.593658 300.937683 505.46875 258.3125 L 519.5625 258.3125 C 537.208435 300.937683 552.906189 334.510315 566.65625 359.03125 C 580.406311 383.552246 594.041626 402.572876 607.5625 416.09375 C 620.854248 429.614624 639.817627 443.249939 664.453125 457 C 689.088623 470.750061 722.374756 486.218628 764.3125 503.40625 Z"/>
</svg>
